<svg width="32" height="32" viewBox="0 0 32 32" fill="none" xmlns="http://www.w3.org/2000/svg">
<rect x="0.5" y="0.5" width="31" height="31" rx="4.5" stroke="#46A358" stroke-opacity="0.2"/>
<path d="M10.4219 9.17499C13.2218 8.94167 19.4443 8.94167 22.2441 9.17499L22.5205 9.20136C25.301 9.52296 25.666 11.3484 25.666 16.0197L25.6611 16.8889C25.6073 21.0678 25.0875 22.7175 22.2441 22.8635C19.7943 22.9996 14.7241 23.0163 11.6191 22.9143L10.4219 22.8635C7.57833 22.6447 7.05868 21.0587 7.00488 16.8879L7 16.0197C7 11.1978 7.38884 9.40838 10.4219 9.17499ZM21.3408 13.3566C18.7471 13.1955 13.9159 13.1955 11.3232 13.3566C11.323 13.3592 11.3235 13.3619 11.3232 13.3644C11.2608 13.9972 11.2363 14.842 11.2363 16.0197C11.2363 17.1893 11.2607 18.0301 11.3223 18.6613C13.9705 18.7666 18.6955 18.7666 21.3438 18.6613C21.4047 18.0237 21.4297 17.1804 21.4297 16.0197C21.4297 14.842 21.4043 13.9972 21.3418 13.3644C21.3415 13.3618 21.3411 13.3592 21.3408 13.3566ZM14 16.0197C14 14.5904 15.5038 13.6608 16.7822 14.3C18.1992 15.0086 18.1993 17.0309 16.7822 17.7394C15.504 18.3784 14.0003 17.4487 14 16.0197Z" fill="#46A358" fill-opacity="0.6"/>
</svg>
